<svg xmlns="http://www.w3.org/2000/svg" width="218" height="48" viewBox="10 7 218 48" role="img" aria-label="demay logo">
  <title>demay logo</title>
  <path fill="#7BC4C4" fill-rule="evenodd" d="
    M 66.00 41.15 C 65.50 41.25, 65.33 41.08, 65.00 41.15 C 64.67 41.21, 65.00 41.49, 64.00 41.52 C 63.00 41.55, 60.00 41.43, 59.00 41.33 C 58.00 41.23, 58.67 41.07, 58.00 40.92 C 57.33 40.78, 55.83 40.63, 55.00 40.44 C 54.17 40.25, 53.67 39.94, 53.00 39.78 C 52.33 39.61, 51.67 39.60, 51.00 39.44 C 50.33 39.27, 49.83 38.96, 49.00 38.78 C 48.17 38.59, 46.67 38.48, 46.00 38.33 C 45.33 38.18, 45.24 38.10, 45.00 37.87 C 44.76 37.65, 43.86 37.98, 44.56 37.00 C 45.27 36.02, 48.22 33.17, 49.22 32.00 C 50.22 30.83, 49.77 30.96, 50.56 30.00 C 51.36 29.04, 53.09 27.17, 54.00 26.22 C 54.91 25.28, 55.50 24.79, 56.00 24.34 C 56.50 23.90, 56.67 23.75, 57.00 23.56 C 57.33 23.38, 57.67 23.40, 58.00 23.22 C 58.33 23.04, 58.67 22.62, 59.00 22.48 C 59.33 22.33, 59.67 22.45, 60.00 22.34 C 60.33 22.24, 60.50 21.98, 61.00 21.85 C 61.50 21.72, 62.33 21.63, 63.00 21.56 C 63.67 21.50, 64.50 21.46, 65.00 21.48 C 65.50 21.49, 65.50 21.47, 66.00 21.67 C 66.50 21.87, 67.60 22.45, 68.00 22.67 C 68.40 22.89, 68.41 22.88, 68.41 23.00 C 68.41 23.12, 68.40 23.28, 68.00 23.41 C 67.60 23.54, 66.67 23.59, 66.00 23.78 C 65.33 23.96, 64.48 24.32, 64.00 24.52 C 63.52 24.73, 63.48 24.77, 63.15 25.00 C 62.81 25.23, 62.69 25.14, 62.00 25.92 C 61.31 26.71, 59.70 28.89, 59.00 29.74 C 58.30 30.58, 58.20 30.46, 57.78 31.00 C 57.35 31.54, 56.68 32.50, 56.44 33.00 C 56.19 33.50, 56.04 33.75, 56.30 34.00 C 56.56 34.25, 57.22 34.36, 58.00 34.48 C 58.78 34.59, 60.17 34.64, 61.00 34.67 C 61.83 34.70, 62.17 34.72, 63.00 34.67 C 63.83 34.62, 65.02 34.62, 66.00 34.34 C 66.98 34.06, 68.02 33.52, 68.85 33.00 C 69.69 32.48, 70.48 31.75, 71.00 31.22 C 71.52 30.70, 71.65 30.39, 72.00 29.85 C 72.35 29.32, 72.84 28.48, 73.08 28.00 C 73.31 27.52, 73.34 27.83, 73.42 27.00 C 73.50 26.17, 73.62 24.00, 73.56 23.00 C 73.51 22.00, 73.24 21.50, 73.08 21.00 C 72.91 20.50, 72.69 20.33, 72.56 20.00 C 72.44 19.67, 72.69 19.50, 72.34 19.00 C 71.99 18.50, 71.04 17.54, 70.48 17.00 C 69.92 16.46, 69.41 16.09, 69.00 15.78 C 68.59 15.47, 68.67 15.37, 68.00 15.15 C 67.33 14.92, 66.17 14.54, 65.00 14.44 C 63.83 14.33, 61.95 14.43, 61.00 14.52 C 60.05 14.62, 59.80 14.81, 59.30 15.00 C 58.80 15.19, 58.38 15.42, 58.00 15.66 C 57.62 15.90, 57.33 16.14, 57.00 16.44 C 56.67 16.73, 56.37 17.01, 56.00 17.44 C 55.63 17.86, 55.15 18.57, 54.78 19.00 C 54.41 19.43, 54.17 19.50, 53.78 20.00 C 53.39 20.50, 52.94 21.33, 52.44 22.00 C 51.94 22.67, 51.28 23.33, 50.78 24.00 C 50.28 24.67, 49.81 25.50, 49.44 26.00 C 49.06 26.50, 49.02 26.33, 48.52 27.00 C 48.02 27.67, 47.06 29.17, 46.44 30.00 C 45.81 30.83, 45.70 31.00, 44.78 32.00 C 43.86 33.00, 42.05 34.93, 40.92 36.00 C 39.80 37.07, 38.65 37.97, 38.00 38.44 C 37.35 38.90, 37.33 38.60, 37.00 38.78 C 36.67 38.96, 36.33 39.38, 36.00 39.52 C 35.67 39.67, 35.50 39.49, 35.00 39.66 C 34.50 39.82, 34.00 40.24, 33.00 40.52 C 32.00 40.80, 30.17 41.20, 29.00 41.33 C 27.83 41.46, 26.83 41.44, 26.00 41.33 C 25.17 41.22, 24.50 40.77, 24.00 40.66 C 23.50 40.55, 23.67 40.86, 23.00 40.66 C 22.33 40.45, 20.67 39.77, 20.00 39.44 C 19.33 39.10, 19.33 38.87, 19.00 38.66 C 18.67 38.44, 18.37 38.42, 18.00 38.15 C 17.63 37.87, 17.14 37.27, 16.81 37.00 C 16.47 36.73, 16.22 36.69, 16.00 36.52 C 15.78 36.35, 15.76 36.42, 15.48 36.00 C 15.20 35.58, 14.69 34.50, 14.34 34.00 C 13.99 33.50, 13.61 33.33, 13.40 33.00 C 13.18 32.67, 13.36 32.67, 13.08 32.00 C 12.79 31.33, 11.96 29.67, 11.67 29.00 C 11.38 28.33, 11.42 28.67, 11.34 28.00 C 11.27 27.33, 11.22 26.00, 11.22 25.00 C 11.22 24.00, 11.27 22.83, 11.34 22.00 C 11.42 21.17, 11.45 20.83, 11.67 20.00 C 11.89 19.17, 12.00 18.17, 12.67 17.00 C 13.34 15.83, 14.95 13.86, 15.67 13.00 C 16.39 12.14, 16.44 12.28, 17.00 11.85 C 17.56 11.43, 18.33 10.90, 19.00 10.48 C 19.67 10.06, 20.33 9.68, 21.00 9.34 C 21.67 9.01, 22.50 8.64, 23.00 8.48 C 23.50 8.31, 23.67 8.45, 24.00 8.34 C 24.33 8.24, 24.67 7.94, 25.00 7.85 C 25.33 7.77, 25.67 7.90, 26.00 7.85 C 26.33 7.81, 26.67 7.63, 27.00 7.56 C 27.33 7.50, 27.00 7.46, 28.00 7.48 C 29.00 7.49, 32.00 7.57, 33.00 7.67 C 34.00 7.77, 33.33 7.93, 34.00 8.08 C 34.67 8.22, 36.33 8.40, 37.00 8.56 C 37.67 8.73, 37.33 8.89, 38.00 9.08 C 38.67 9.26, 40.33 9.50, 41.00 9.67 C 41.67 9.84, 41.33 9.91, 42.00 10.08 C 42.67 10.24, 44.33 10.50, 45.00 10.67 C 45.67 10.84, 45.70 10.85, 46.00 11.08 C 46.30 11.30, 46.94 11.49, 46.78 12.00 C 46.61 12.51, 45.39 13.65, 45.00 14.15 C 44.61 14.65, 44.77 14.62, 44.44 15.00 C 44.10 15.38, 43.44 15.94, 43.00 16.44 C 42.56 16.94, 42.31 17.41, 41.78 18.00 C 41.24 18.59, 40.35 19.33, 39.78 20.00 C 39.20 20.67, 38.96 21.31, 38.33 22.00 C 37.70 22.69, 36.89 23.45, 36.00 24.15 C 35.11 24.84, 33.67 25.75, 33.00 26.15 C 32.33 26.54, 32.67 26.31, 32.00 26.52 C 31.33 26.74, 30.00 27.30, 29.00 27.44 C 28.00 27.57, 26.83 27.50, 26.00 27.33 C 25.17 27.16, 24.42 26.66, 24.00 26.44 C 23.58 26.22, 23.48 26.16, 23.48 26.00 C 23.48 25.84, 23.75 25.59, 24.00 25.48 C 24.25 25.37, 24.70 25.42, 25.00 25.34 C 25.30 25.26, 25.47 25.14, 25.81 25.00 C 26.14 24.86, 26.47 24.75, 27.00 24.48 C 27.53 24.20, 28.30 23.92, 29.00 23.34 C 29.70 22.76, 30.63 21.72, 31.22 21.00 C 31.82 20.28, 32.17 19.50, 32.56 19.00 C 32.95 18.50, 33.12 18.50, 33.56 18.00 C 34.01 17.50, 34.93 16.50, 35.22 16.00 C 35.52 15.50, 35.37 15.20, 35.34 15.00 C 35.30 14.80, 35.72 14.89, 35.00 14.78 C 34.28 14.67, 32.33 14.40, 31.00 14.33 C 29.67 14.26, 28.12 14.22, 27.00 14.33 C 25.88 14.44, 25.28 14.56, 24.30 15.00 C 23.33 15.44, 21.79 16.50, 21.15 17.00 C 20.50 17.50, 20.72 17.67, 20.44 18.00 C 20.15 18.33, 19.73 18.67, 19.44 19.00 C 19.14 19.33, 18.95 19.33, 18.66 20.00 C 18.36 20.67, 17.80 22.00, 17.66 23.00 C 17.51 24.00, 17.59 25.00, 17.78 26.00 C 17.96 27.00, 18.52 28.33, 18.78 29.00 C 19.04 29.67, 19.13 29.69, 19.33 30.00 C 19.53 30.31, 19.53 30.35, 20.00 30.85 C 20.47 31.35, 21.43 32.48, 22.15 33.00 C 22.86 33.52, 23.66 33.76, 24.30 34.00 C 24.94 34.24, 25.55 34.34, 26.00 34.42 C 26.45 34.50, 26.33 34.51, 27.00 34.48 C 27.67 34.44, 29.33 34.36, 30.00 34.22 C 30.67 34.09, 30.67 33.82, 31.00 33.67 C 31.33 33.52, 31.67 33.53, 32.00 33.34 C 32.33 33.16, 32.67 32.77, 33.00 32.56 C 33.33 32.35, 33.30 32.67, 34.00 32.08 C 34.70 31.48, 36.38 29.85, 37.22 29.00 C 38.07 28.15, 38.68 27.50, 39.08 27.00 C 39.47 26.50, 39.32 26.33, 39.56 26.00 C 39.81 25.67, 40.12 25.50, 40.56 25.00 C 41.01 24.50, 41.89 23.50, 42.22 23.00 C 42.56 22.50, 42.34 22.33, 42.56 22.00 C 42.79 21.67, 43.12 21.50, 43.56 21.00 C 44.01 20.50, 44.72 19.67, 45.22 19.00 C 45.72 18.33, 45.77 17.94, 46.56 17.00 C 47.36 16.06, 49.09 14.25, 50.00 13.34 C 50.91 12.44, 51.50 11.98, 52.00 11.56 C 52.50 11.15, 52.17 11.31, 53.00 10.85 C 53.83 10.40, 56.17 9.25, 57.00 8.85 C 57.83 8.46, 57.33 8.64, 58.00 8.48 C 58.67 8.31, 60.33 7.96, 61.00 7.85 C 61.67 7.75, 61.67 7.89, 62.00 7.85 C 62.33 7.82, 62.50 7.70, 63.00 7.67 C 63.50 7.64, 64.50 7.64, 65.00 7.67 C 65.50 7.70, 65.67 7.76, 66.00 7.85 C 66.33 7.95, 66.50 8.12, 67.00 8.22 C 67.50 8.33, 68.50 8.37, 69.00 8.48 C 69.50 8.58, 69.33 8.52, 70.00 8.85 C 70.67 9.19, 72.33 10.05, 73.00 10.48 C 73.67 10.90, 73.68 11.14, 74.00 11.40 C 74.32 11.65, 74.32 11.40, 74.91 12.00 C 75.49 12.60, 76.85 14.00, 77.52 15.00 C 78.19 16.00, 78.59 17.33, 78.92 18.00 C 79.26 18.67, 79.38 18.50, 79.52 19.00 C 79.67 19.50, 79.64 20.50, 79.78 21.00 C 79.91 21.50, 80.22 21.50, 80.33 22.00 C 80.44 22.50, 80.44 23.33, 80.44 24.00 C 80.44 24.67, 80.50 25.00, 80.33 26.00 C 80.16 27.00, 79.73 29.00, 79.44 30.00 C 79.15 31.00, 78.86 31.50, 78.58 32.00 C 78.30 32.50, 77.97 32.67, 77.78 33.00 C 77.59 33.33, 77.65 33.67, 77.44 34.00 C 77.23 34.33, 77.10 34.43, 76.52 35.00 C 75.95 35.57, 74.59 36.91, 74.00 37.44 C 73.41 37.96, 73.33 37.96, 73.00 38.15 C 72.67 38.33, 72.33 38.31, 72.00 38.52 C 71.67 38.74, 71.33 39.25, 71.00 39.44 C 70.67 39.63, 70.50 39.48, 70.00 39.66 C 69.50 39.84, 68.67 40.28, 68.00 40.52 C 67.33 40.77, 66.50 41.04, 66.00 41.15 Z
    M 98.00 37.15 C 97.33 37.27, 97.50 37.41, 97.00 37.33 C 96.50 37.25, 95.50 36.77, 95.00 36.66 C 94.50 36.55, 94.33 36.69, 94.00 36.66 C 93.67 36.62, 93.33 36.60, 93.00 36.44 C 92.67 36.27, 92.33 35.87, 92.00 35.66 C 91.67 35.44, 91.37 35.42, 91.00 35.15 C 90.63 34.87, 90.31 34.60, 89.81 34.00 C 89.31 33.40, 88.39 32.02, 88.00 31.52 C 87.61 31.02, 87.59 31.25, 87.48 31.00 C 87.37 30.75, 87.45 30.33, 87.34 30.00 C 87.24 29.67, 86.98 29.33, 86.85 29.00 C 86.72 28.67, 86.63 28.50, 86.56 28.00 C 86.50 27.50, 86.46 26.67, 86.48 26.00 C 86.49 25.33, 86.47 24.83, 86.67 24.00 C 86.87 23.17, 87.11 21.94, 87.67 21.00 C 88.22 20.06, 89.28 19.03, 90.00 18.34 C 90.72 17.65, 91.50 17.17, 92.00 16.85 C 92.50 16.53, 92.67 16.51, 93.00 16.42 C 93.33 16.33, 93.50 16.50, 94.00 16.34 C 94.50 16.18, 95.17 15.62, 96.00 15.48 C 96.83 15.33, 98.33 15.44, 99.00 15.48 C 99.67 15.51, 99.67 15.55, 100.00 15.67 C 100.33 15.79, 100.67 16.09, 101.00 16.22 C 101.33 16.36, 101.67 16.31, 102.00 16.48 C 102.33 16.64, 102.67 17.06, 103.00 17.22 C 103.33 17.39, 103.67 17.28, 104.00 17.48 C 104.33 17.67, 104.75 18.31, 105.00 18.40 C 105.25 18.48, 105.39 18.90, 105.48 18.00 C 105.57 17.10, 105.50 14.00, 105.56 13.00 C 105.63 12.00, 105.78 12.19, 105.85 12.00 C 105.93 11.81, 105.81 11.93, 106.00 11.85 C 106.19 11.78, 106.67 11.59, 107.00 11.56 C 107.33 11.53, 107.78 11.60, 108.00 11.67 C 108.22 11.74, 108.26 11.78, 108.33 12.00 C 108.40 12.22, 108.44 10.33, 108.44 13.00 C 108.44 15.67, 108.44 25.33, 108.33 28.00 C 108.22 30.67, 107.94 28.50, 107.78 29.00 C 107.61 29.50, 107.50 30.50, 107.33 31.00 C 107.16 31.50, 107.04 31.67, 106.78 32.00 C 106.52 32.33, 106.05 32.67, 105.78 33.00 C 105.51 33.33, 105.44 33.64, 105.15 34.00 C 104.85 34.36, 104.36 34.89, 104.00 35.15 C 103.64 35.40, 103.33 35.36, 103.00 35.52 C 102.67 35.69, 102.33 35.97, 102.00 36.15 C 101.67 36.32, 101.67 36.41, 101.00 36.58 C 100.33 36.75, 98.67 37.02, 98.00 37.15 Z
    M 198.00 37.15 C 197.67 37.09, 197.22 36.75, 197.00 36.56 C 196.78 36.36, 196.72 36.26, 196.67 36.00 C 196.61 35.74, 196.78 35.25, 196.67 35.00 C 196.56 34.75, 196.28 34.50, 196.00 34.52 C 195.72 34.55, 195.67 34.81, 195.00 35.15 C 194.33 35.48, 193.00 36.19, 192.00 36.52 C 191.00 36.86, 189.83 37.04, 189.00 37.15 C 188.17 37.25, 187.50 37.18, 187.00 37.15 C 186.50 37.11, 186.33 37.01, 186.00 36.92 C 185.67 36.84, 185.67 36.95, 185.00 36.66 C 184.33 36.36, 182.86 35.76, 182.00 35.15 C 181.14 34.54, 180.41 33.69, 179.85 33.00 C 179.30 32.31, 179.03 31.83, 178.67 31.00 C 178.31 30.17, 177.85 29.00, 177.67 28.00 C 177.49 27.00, 177.53 25.67, 177.56 25.00 C 177.59 24.33, 177.71 24.33, 177.85 24.00 C 178.00 23.67, 178.30 23.33, 178.42 23.00 C 178.54 22.67, 178.37 22.50, 178.56 22.00 C 178.75 21.50, 178.99 20.74, 179.56 20.00 C 180.14 19.26, 181.43 18.03, 182.00 17.56 C 182.57 17.10, 182.67 17.40, 183.00 17.22 C 183.33 17.04, 183.67 16.62, 184.00 16.48 C 184.33 16.33, 184.67 16.45, 185.00 16.34 C 185.33 16.24, 185.67 15.98, 186.00 15.85 C 186.33 15.72, 186.33 15.63, 187.00 15.56 C 187.67 15.50, 189.33 15.46, 190.00 15.48 C 190.67 15.49, 190.50 15.52, 191.00 15.67 C 191.50 15.82, 192.33 16.11, 193.00 16.40 C 193.67 16.68, 194.25 16.79, 195.00 17.40 C 195.75 18.00, 197.00 19.40, 197.52 20.00 C 198.05 20.60, 197.83 20.17, 198.15 21.00 C 198.46 21.83, 199.21 24.00, 199.44 25.00 C 199.67 26.00, 199.51 25.17, 199.52 27.00 C 199.54 28.83, 199.61 34.35, 199.52 36.00 C 199.44 37.65, 199.25 36.72, 199.00 36.91 C 198.75 37.10, 198.33 37.20, 198.00 37.15 Z
    M 123.00 37.15 C 122.33 37.34, 122.50 37.30, 122.00 37.33 C 121.50 37.36, 120.50 37.42, 120.00 37.33 C 119.50 37.24, 119.33 36.90, 119.00 36.78 C 118.67 36.66, 118.67 36.88, 118.00 36.60 C 117.33 36.33, 115.86 35.75, 115.00 35.15 C 114.14 34.54, 113.43 33.69, 112.85 33.00 C 112.28 32.31, 111.82 31.50, 111.56 31.00 C 111.31 30.50, 111.46 30.33, 111.34 30.00 C 111.22 29.67, 110.97 29.33, 110.85 29.00 C 110.74 28.67, 110.72 28.50, 110.67 28.00 C 110.62 27.50, 110.56 26.67, 110.56 26.00 C 110.56 25.33, 110.45 24.83, 110.67 24.00 C 110.88 23.17, 111.54 21.67, 111.85 21.00 C 112.17 20.33, 112.04 20.57, 112.56 20.00 C 113.09 19.43, 114.43 18.09, 115.00 17.56 C 115.57 17.04, 115.67 17.04, 116.00 16.85 C 116.33 16.67, 116.67 16.64, 117.00 16.48 C 117.33 16.31, 117.50 16.01, 118.00 15.85 C 118.50 15.70, 119.33 15.63, 120.00 15.56 C 120.67 15.50, 121.50 15.48, 122.00 15.48 C 122.50 15.48, 122.67 15.50, 123.00 15.56 C 123.33 15.63, 123.67 15.72, 124.00 15.85 C 124.33 15.98, 124.67 16.24, 125.00 16.34 C 125.33 16.45, 125.67 16.39, 126.00 16.48 C 126.33 16.56, 126.48 16.43, 127.00 16.85 C 127.52 17.28, 128.59 18.48, 129.15 19.00 C 129.70 19.52, 130.07 19.67, 130.33 20.00 C 130.60 20.33, 130.55 20.67, 130.74 21.00 C 130.92 21.33, 131.26 21.67, 131.44 22.00 C 131.61 22.33, 131.66 22.50, 131.78 23.00 C 131.90 23.50, 132.08 24.33, 132.15 25.00 C 132.21 25.67, 132.34 26.57, 132.15 27.00 C 131.95 27.43, 134.02 27.48, 131.00 27.58 C 127.98 27.68, 116.91 27.51, 114.00 27.58 C 111.09 27.65, 113.56 27.76, 113.52 28.00 C 113.49 28.24, 113.58 28.50, 113.78 29.00 C 113.98 29.50, 114.26 30.33, 114.74 31.00 C 115.21 31.67, 116.23 32.61, 116.60 33.00 C 116.98 33.39, 116.77 33.25, 117.00 33.34 C 117.23 33.44, 117.67 33.44, 118.00 33.56 C 118.33 33.69, 118.67 33.95, 119.00 34.08 C 119.33 34.20, 119.50 34.28, 120.00 34.34 C 120.50 34.40, 121.50 34.42, 122.00 34.42 C 122.50 34.42, 122.67 34.40, 123.00 34.34 C 123.33 34.28, 123.50 34.26, 124.00 34.08 C 124.50 33.89, 125.44 33.57, 126.00 33.22 C 126.56 32.88, 126.97 32.37, 127.34 32.00 C 127.71 31.63, 127.78 31.41, 128.22 31.00 C 128.67 30.59, 129.54 29.82, 130.00 29.56 C 130.46 29.31, 130.75 29.40, 131.00 29.48 C 131.25 29.55, 131.47 29.75, 131.52 30.00 C 131.58 30.25, 131.45 30.67, 131.33 31.00 C 131.21 31.33, 131.18 31.50, 130.78 32.00 C 130.38 32.50, 129.43 33.50, 128.92 34.00 C 128.42 34.50, 128.22 34.64, 127.74 35.00 C 127.25 35.36, 126.79 35.79, 126.00 36.15 C 125.21 36.50, 123.67 36.95, 123.00 37.15 Z
    M 218.00 54.33 C 217.17 54.53, 216.67 54.51, 216.00 54.52 C 215.33 54.54, 214.83 54.60, 214.00 54.44 C 213.17 54.27, 211.83 53.91, 211.00 53.52 C 210.17 53.14, 209.69 52.73, 209.00 52.15 C 208.31 51.56, 207.28 50.52, 206.85 50.00 C 206.43 49.48, 206.64 49.33, 206.48 49.00 C 206.31 48.67, 205.99 48.33, 205.85 48.00 C 205.72 47.67, 205.65 47.22, 205.67 47.00 C 205.69 46.78, 205.78 46.82, 206.00 46.67 C 206.22 46.52, 206.67 46.12, 207.00 46.08 C 207.33 46.03, 207.73 46.24, 208.00 46.40 C 208.27 46.55, 208.44 46.76, 208.60 47.00 C 208.77 47.24, 208.78 47.47, 209.00 47.81 C 209.22 48.14, 209.59 48.62, 209.92 49.00 C 210.26 49.38, 210.49 49.70, 211.00 50.08 C 211.51 50.45, 212.33 50.99, 213.00 51.22 C 213.67 51.46, 214.33 51.43, 215.00 51.48 C 215.67 51.52, 216.33 51.54, 217.00 51.48 C 217.67 51.41, 218.41 51.32, 219.00 51.08 C 219.59 50.83, 220.12 50.35, 220.56 50.00 C 221.01 49.65, 221.21 49.50, 221.67 49.00 C 222.13 48.50, 223.04 47.50, 223.34 47.00 C 223.64 46.50, 223.39 46.33, 223.48 46.00 C 223.56 45.67, 223.79 45.33, 223.85 45.00 C 223.92 44.67, 223.79 44.33, 223.85 44.00 C 223.92 43.67, 224.14 43.33, 224.22 43.00 C 224.30 42.67, 224.31 42.67, 224.34 42.00 C 224.37 41.33, 224.43 39.67, 224.42 39.00 C 224.41 38.33, 224.33 38.20, 224.26 38.00 C 224.19 37.80, 224.38 37.54, 224.00 37.78 C 223.62 38.02, 222.50 39.10, 222.00 39.44 C 221.50 39.77, 221.33 39.59, 221.00 39.78 C 220.67 39.97, 220.33 40.41, 220.00 40.58 C 219.67 40.75, 219.33 40.65, 219.00 40.78 C 218.67 40.90, 218.67 41.21, 218.00 41.33 C 217.33 41.45, 215.67 41.51, 215.00 41.52 C 214.33 41.54, 214.67 41.62, 214.00 41.44 C 213.33 41.26, 211.83 40.82, 211.00 40.44 C 210.17 40.05, 209.69 39.72, 209.00 39.15 C 208.31 38.57, 207.29 37.52, 206.85 37.00 C 206.42 36.48, 206.59 36.33, 206.40 36.00 C 206.20 35.67, 205.82 35.33, 205.67 35.00 C 205.52 34.67, 205.64 34.50, 205.48 34.00 C 205.31 33.50, 204.80 32.50, 204.67 32.00 C 204.54 31.50, 204.70 31.33, 204.67 31.00 C 204.64 30.67, 204.52 32.00, 204.48 30.00 C 204.43 28.00, 204.42 21.00, 204.42 19.00 C 204.42 17.00, 204.38 18.25, 204.48 18.00 C 204.57 17.75, 204.75 17.56, 205.00 17.48 C 205.25 17.39, 205.68 17.39, 206.00 17.48 C 206.32 17.56, 206.72 17.75, 206.91 18.00 C 207.10 18.25, 207.11 17.83, 207.15 19.00 C 207.19 20.17, 207.11 23.83, 207.15 25.00 C 207.18 26.17, 207.28 25.17, 207.33 26.00 C 207.38 26.83, 207.38 29.00, 207.44 30.00 C 207.49 31.00, 207.51 31.33, 207.66 32.00 C 207.81 32.67, 208.00 33.33, 208.33 34.00 C 208.66 34.67, 209.21 35.49, 209.66 36.00 C 210.10 36.51, 210.61 36.83, 211.00 37.08 C 211.39 37.32, 211.67 37.29, 212.00 37.48 C 212.33 37.67, 212.50 38.04, 213.00 38.22 C 213.50 38.40, 214.17 38.54, 215.00 38.56 C 215.83 38.58, 217.33 38.49, 218.00 38.34 C 218.67 38.19, 218.67 37.84, 219.00 37.67 C 219.33 37.50, 219.57 37.62, 220.00 37.34 C 220.43 37.06, 221.03 36.56, 221.56 36.00 C 222.10 35.44, 222.84 34.67, 223.22 34.00 C 223.60 33.33, 223.75 32.50, 223.85 32.00 C 223.96 31.50, 223.77 31.33, 223.85 31.00 C 223.94 30.67, 224.26 32.00, 224.34 30.00 C 224.42 28.00, 224.23 20.94, 224.34 19.00 C 224.45 17.06, 224.72 18.47, 225.00 18.34 C 225.28 18.21, 225.67 18.18, 226.00 18.22 C 226.33 18.26, 226.78 18.46, 227.00 18.59 C 227.22 18.72, 227.28 15.43, 227.33 19.00 C 227.39 22.57, 227.36 36.33, 227.33 40.00 C 227.30 43.67, 227.18 40.67, 227.15 41.00 C 227.11 41.33, 227.26 41.17, 227.15 42.00 C 227.03 42.83, 226.60 45.17, 226.44 46.00 C 226.27 46.83, 226.36 46.50, 226.15 47.00 C 225.93 47.50, 225.50 48.38, 225.15 49.00 C 224.79 49.62, 224.36 50.27, 224.00 50.74 C 223.64 51.20, 223.33 51.44, 223.00 51.78 C 222.67 52.11, 222.33 52.48, 222.00 52.74 C 221.67 52.99, 221.67 53.06, 221.00 53.33 C 220.33 53.60, 218.83 54.13, 218.00 54.33 Z
    M 174.00 37.15 C 173.78 37.16, 173.87 37.14, 173.70 37.00 C 173.53 36.86, 173.14 36.47, 173.00 36.30 C 172.86 36.13, 172.88 37.22, 172.85 36.00 C 172.83 34.78, 172.90 30.50, 172.85 29.00 C 172.81 27.50, 172.63 27.67, 172.56 27.00 C 172.50 26.33, 172.56 25.67, 172.48 25.00 C 172.40 24.33, 172.35 23.67, 172.08 23.00 C 171.80 22.33, 171.22 21.50, 170.85 21.00 C 170.48 20.50, 170.16 20.26, 169.85 20.00 C 169.55 19.74, 169.31 19.62, 169.00 19.44 C 168.69 19.26, 168.50 19.09, 168.00 18.92 C 167.50 18.76, 166.67 18.54, 166.00 18.44 C 165.33 18.34, 164.67 18.31, 164.00 18.33 C 163.33 18.35, 162.50 18.44, 162.00 18.58 C 161.50 18.72, 161.33 18.99, 161.00 19.15 C 160.67 19.30, 160.43 19.21, 160.00 19.52 C 159.57 19.83, 158.91 20.42, 158.44 21.00 C 157.96 21.58, 157.42 22.50, 157.15 23.00 C 156.87 23.50, 156.88 23.33, 156.78 24.00 C 156.67 24.67, 156.57 25.00, 156.52 27.00 C 156.48 29.00, 156.61 34.31, 156.52 36.00 C 156.44 37.69, 156.25 36.92, 156.00 37.15 C 155.75 37.37, 155.33 37.38, 155.00 37.33 C 154.67 37.28, 154.24 37.10, 154.00 36.87 C 153.76 36.65, 153.64 37.65, 153.56 36.00 C 153.49 34.35, 153.62 29.00, 153.56 27.00 C 153.51 25.00, 153.32 24.57, 153.22 24.00 C 153.13 23.43, 153.30 24.06, 153.00 23.56 C 152.70 23.06, 151.90 21.65, 151.40 21.00 C 150.90 20.35, 150.57 20.05, 150.00 19.66 C 149.43 19.27, 148.83 18.88, 148.00 18.66 C 147.17 18.44, 145.83 18.34, 145.00 18.33 C 144.17 18.32, 143.50 18.48, 143.00 18.58 C 142.50 18.68, 142.33 18.77, 142.00 18.92 C 141.67 19.08, 141.28 19.34, 141.00 19.52 C 140.72 19.70, 140.66 19.70, 140.33 20.00 C 140.00 20.30, 139.43 20.83, 139.00 21.33 C 138.57 21.83, 138.06 22.39, 137.78 23.00 C 137.50 23.61, 137.40 24.50, 137.33 25.00 C 137.26 25.50, 137.40 25.67, 137.33 26.00 C 137.26 26.33, 136.99 25.33, 136.92 27.00 C 136.86 28.67, 137.01 34.33, 136.92 36.00 C 136.84 37.67, 136.56 36.78, 136.41 37.00 C 136.25 37.22, 136.23 37.28, 136.00 37.33 C 135.77 37.39, 135.22 37.39, 135.00 37.33 C 134.78 37.28, 134.77 37.22, 134.67 37.00 C 134.57 36.78, 134.45 37.83, 134.42 36.00 C 134.39 34.17, 134.43 28.00, 134.48 26.00 C 134.52 24.00, 134.50 24.67, 134.67 24.00 C 134.84 23.33, 135.31 22.50, 135.48 22.00 C 135.64 21.50, 135.25 21.63, 135.67 21.00 C 136.09 20.37, 137.44 18.81, 138.00 18.22 C 138.56 17.64, 138.50 17.79, 139.00 17.48 C 139.50 17.16, 140.50 16.55, 141.00 16.34 C 141.50 16.13, 141.50 16.35, 142.00 16.22 C 142.50 16.09, 143.17 15.69, 144.00 15.56 C 144.83 15.44, 146.33 15.46, 147.00 15.48 C 147.67 15.49, 147.50 15.50, 148.00 15.67 C 148.50 15.84, 149.52 16.25, 150.00 16.48 C 150.48 16.70, 150.41 16.63, 150.91 17.00 C 151.41 17.37, 152.32 18.08, 153.00 18.67 C 153.68 19.26, 154.17 20.75, 155.00 20.56 C 155.83 20.38, 157.33 18.10, 158.00 17.56 C 158.67 17.03, 158.67 17.52, 159.00 17.34 C 159.33 17.16, 159.67 16.64, 160.00 16.48 C 160.33 16.31, 160.67 16.45, 161.00 16.34 C 161.33 16.24, 161.67 15.98, 162.00 15.85 C 162.33 15.72, 162.50 15.63, 163.00 15.56 C 163.50 15.50, 164.33 15.46, 165.00 15.48 C 165.67 15.49, 166.17 15.44, 167.00 15.67 C 167.83 15.90, 169.33 16.55, 170.00 16.85 C 170.67 17.16, 170.54 17.12, 171.00 17.48 C 171.46 17.83, 172.18 18.41, 172.74 19.00 C 173.29 19.59, 173.99 20.33, 174.33 21.00 C 174.67 21.67, 174.61 22.50, 174.78 23.00 C 174.94 23.50, 175.21 23.33, 175.33 24.00 C 175.45 24.67, 175.49 25.00, 175.52 27.00 C 175.56 29.00, 175.61 34.35, 175.52 36.00 C 175.44 37.65, 175.25 36.72, 175.00 36.91 C 174.75 37.10, 174.22 37.13, 174.00 37.15 Z
    M 190.81 34.00 C 191.31 33.79, 192.47 33.35, 193.00 33.08 C 193.53 32.80, 193.63 32.69, 194.00 32.34 C 194.37 32.00, 194.96 31.39, 195.22 31.00 C 195.48 30.61, 195.40 30.33, 195.56 30.00 C 195.73 29.67, 196.08 29.33, 196.22 29.00 C 196.37 28.67, 196.36 28.50, 196.42 28.00 C 196.48 27.50, 196.58 26.67, 196.56 26.00 C 196.55 25.33, 196.42 24.50, 196.34 24.00 C 196.26 23.50, 196.47 23.64, 196.08 23.00 C 195.68 22.36, 194.71 20.81, 194.00 20.15 C 193.29 19.48, 192.31 19.25, 191.81 19.00 C 191.31 18.75, 191.47 18.77, 191.00 18.66 C 190.53 18.55, 189.83 18.34, 189.00 18.33 C 188.17 18.32, 186.83 18.36, 186.00 18.58 C 185.17 18.80, 184.59 19.25, 184.00 19.66 C 183.41 20.06, 182.94 20.41, 182.44 21.00 C 181.94 21.59, 181.30 22.69, 181.00 23.19 C 180.70 23.69, 180.73 23.70, 180.66 24.00 C 180.59 24.30, 180.63 24.67, 180.58 25.00 C 180.53 25.33, 180.34 25.67, 180.33 26.00 C 180.32 26.33, 180.49 26.67, 180.52 27.00 C 180.56 27.33, 180.48 27.67, 180.52 28.00 C 180.57 28.33, 180.54 28.50, 180.78 29.00 C 181.01 29.50, 181.55 30.43, 181.92 31.00 C 182.30 31.57, 182.65 32.09, 183.00 32.40 C 183.35 32.70, 183.50 32.57, 184.00 32.85 C 184.50 33.13, 185.33 33.80, 186.00 34.08 C 186.67 34.35, 187.33 34.43, 188.00 34.48 C 188.67 34.52, 189.53 34.42, 190.00 34.34 C 190.47 34.26, 190.31 34.21, 190.81 34.00 Z
    M 99.81 34.00 C 100.14 33.87, 100.63 33.75, 101.00 33.56 C 101.37 33.37, 101.67 33.06, 102.00 32.85 C 102.33 32.65, 102.65 32.65, 103.00 32.34 C 103.35 32.03, 103.73 31.56, 104.08 31.00 C 104.42 30.44, 104.85 29.50, 105.08 29.00 C 105.30 28.50, 105.34 28.50, 105.42 28.00 C 105.50 27.50, 105.60 26.67, 105.56 26.00 C 105.53 25.33, 105.37 24.50, 105.22 24.00 C 105.07 23.50, 104.82 23.33, 104.67 23.00 C 104.52 22.67, 104.45 22.25, 104.34 22.00 C 104.23 21.75, 104.39 21.91, 104.00 21.52 C 103.61 21.13, 102.53 20.08, 102.00 19.66 C 101.47 19.24, 101.14 19.17, 100.81 19.00 C 100.47 18.83, 100.47 18.77, 100.00 18.66 C 99.53 18.55, 98.83 18.34, 98.00 18.33 C 97.17 18.32, 95.83 18.36, 95.00 18.58 C 94.17 18.80, 93.50 19.35, 93.00 19.66 C 92.50 19.97, 92.33 20.13, 92.00 20.44 C 91.67 20.75, 91.35 21.09, 91.00 21.52 C 90.65 21.95, 90.20 22.25, 89.92 23.00 C 89.65 23.75, 89.40 25.17, 89.33 26.00 C 89.26 26.83, 89.45 27.50, 89.52 28.00 C 89.60 28.50, 89.57 28.50, 89.78 29.00 C 89.99 29.50, 90.41 30.43, 90.78 31.00 C 91.15 31.57, 91.63 32.09, 92.00 32.40 C 92.37 32.70, 92.67 32.66, 93.00 32.85 C 93.33 33.05, 93.67 33.36, 94.00 33.56 C 94.33 33.77, 94.50 33.92, 95.00 34.08 C 95.50 34.23, 96.33 34.43, 97.00 34.48 C 97.67 34.52, 98.53 34.42, 99.00 34.34 C 99.47 34.26, 99.47 34.13, 99.81 34.00 Z
    M 129.22 24.00 C 129.15 23.76, 128.71 23.33, 128.56 23.00 C 128.42 22.67, 128.69 22.50, 128.34 22.00 C 127.99 21.50, 127.07 20.50, 126.48 20.00 C 125.89 19.50, 125.22 19.22, 124.81 19.00 C 124.39 18.78, 124.47 18.77, 124.00 18.66 C 123.53 18.55, 122.83 18.35, 122.00 18.33 C 121.17 18.31, 119.67 18.39, 119.00 18.52 C 118.33 18.66, 118.33 18.98, 118.00 19.15 C 117.67 19.31, 117.59 19.05, 117.00 19.52 C 116.41 20.00, 114.95 21.42, 114.44 22.00 C 113.92 22.58, 114.05 22.67, 113.92 23.00 C 113.80 23.33, 113.65 23.70, 113.66 24.00 C 113.67 24.30, 113.78 24.67, 114.00 24.81 C 114.22 24.95, 112.67 24.85, 115.00 24.85 C 117.33 24.86, 125.67 24.92, 128.00 24.85 C 130.33 24.79, 128.80 24.59, 129.00 24.44 C 129.20 24.30, 129.30 24.24, 129.22 24.00 Z
  "/>
</svg>
